<svg fill="none" height="78" viewBox="0 0 200 78" width="200" xmlns="http://www.w3.org/2000/svg" xmlns:xlink="http://www.w3.org/1999/xlink"><clipPath id="a"><path d="m0 .510376h200v76.9793h-200z"/></clipPath><g clip-path="url(#a)"><path d="m24.5924 21.4375 4.9428-.3037c-.0281.7848.0841 1.3828.3363 1.7938.4158.6634 1.1119.995 2.0977.995.7335 0 1.3268-.1681 1.7846-.5091.4579-.341.7241-.7334.7989-1.1819.0747-.4251-.0514-.8081-.3691-1.1398-.3223-.3363-1.1446-.654-2.4667-.953-2.1677-.4998-3.6627-1.1631-4.4802-1.9946-.827-.8269-1.126-1.8826-.9064-3.1672.1448-.8455.5326-1.6397 1.154-2.3917.626-.7521 1.4716-1.3407 2.5414-1.7705 1.0699-.4298 2.4714-.6446 4.2-.6446 2.1256 0 3.6814.3924 4.6624 1.1678.9811.7801 1.4296 2.0227 1.3502 3.7231l-4.8914.2803c0-.7381-.1775-1.2753-.5326-1.6117-.355-.3363-.897-.5045-1.6211-.5045-.598 0-1.0698.1262-1.4156.3737-.3457.2523-.5512.5559-.612.911-.0467.2616.0374.4951.2523.7053.2056.2149.7428.4205 1.6211.6026 2.1631.4765 3.6908.9623 4.5784 1.4482.8876.4904 1.4903 1.0977 1.808 1.8218.3177.724.3971 1.5322.2429 2.4291-.1822 1.051-.6447 2.0227-1.3875 2.9102-.7428.8876-1.6819 1.5603-2.8218 2.0227-1.1399.4578-2.5134.6867-4.1252.6867-2.8311 0-4.6951-.5372-5.6015-1.6116-.9016-1.0744-1.2847-2.4431-1.1446-4.0968z" fill="#488cca"/><path d="m55.4684 22.0543h-9.2595c-.0421.7334.0654 1.2753.3177 1.635.355.5139.897.7708 1.6164.7708.4532 0 .9063-.1121 1.3502-.3363.2756-.1402.5839-.3924.9343-.7521l4.4803.4157c-.9017 1.1959-1.8874 2.0507-2.9619 2.5693-1.0746.5185-2.5275.7801-4.3682.7801-1.5977 0-2.8124-.2242-3.6533-.668-.841-.4438-1.4763-1.1492-1.9108-2.1161-.4345-.967-.5373-2.1022-.313-3.4101.3223-1.8592 1.182-3.3634 2.5882-4.5126 1.4062-1.1491 3.1721-1.7237 5.2978-1.7237 1.7239 0 3.0413.2569 3.9523.7708.911.5138 1.5417 1.2612 1.8968 2.2376.3551.9763.3971 2.2515.1261 3.8165l-.0887.5138zm-4.3214-2.1815c.0607-.8829-.0701-1.5135-.3925-1.8919-.3223-.3784-.8035-.5699-1.4389-.5699-.7334 0-1.3688.2896-1.9061.8642-.341.3597-.612.8922-.8082 1.6023h4.5503z" fill="#488cca"/><path d="m59.0423 14.9765h4.3027l-.3363 1.9386c.7802-.7895 1.5277-1.3547 2.2424-1.6957.7148-.341 1.5464-.5092 2.4948-.5092 1.2801 0 2.2144.3737 2.8077 1.1258.5934.7521.7522 1.9106.4859 3.4755l-1.3034 7.5582h-4.6391l1.1259-6.5399c.1308-.7474.0794-1.2752-.1448-1.5835-.2243-.3084-.5934-.4625-1.0979-.4625-.5606 0-1.0512.2102-1.4716.626-.4205.4204-.7242 1.1678-.911 2.2515l-.9858 5.7084h-4.6204z" fill="#488cca"/><path d="m78.3228 18.8303-4.3354-.4577c.299-.7615.64-1.3594 1.0325-1.7985.3877-.4345.9063-.8175 1.551-1.1352.4625-.2335 1.0792-.411 1.8407-.5372.7615-.1261 1.5744-.1915 2.4387-.1915 1.3828 0 2.4854.0747 3.2983.2289s1.4576.4718 1.9341.9576c.3364.3364.5653.8128.6821 1.4295.1215.6166.1308 1.2052.0374 1.7657l-.9064 5.2506c-.0981.5606-.1354.9997-.1168 1.3174.0187.3176.1028.724.2617 1.2145h-4.3355c-.1214-.3083-.1962-.5372-.2195-.7007-.0234-.1588-.0327-.4111-.0281-.7567-.7054.5745-1.3782.9856-2.0182 1.2332-.8736.327-1.85.4905-2.9339.4905-1.4389 0-2.4714-.327-3.1021-.9857-.6307-.6586-.8643-1.4668-.7007-2.4291.1541-.9015.5512-1.6443 1.1913-2.2282.6353-.5839 1.7052-1.0137 3.1955-1.2986 1.7893-.3411 2.9572-.584 3.4945-.7241.5373-.1402 1.1119-.3177 1.7286-.5419.0981-.5606.0467-.9529-.1495-1.1772-.1963-.2242-.5887-.3363-1.1773-.3363-.7569 0-1.3455.1214-1.766.3597-.327.1868-.626.5372-.897 1.051zm3.5927 2.3964c-.6728.2243-1.3689.4205-2.0883.5933-.9811.2476-1.6165.4905-1.9061.7287-.299.2476-.4766.5279-.5326.8409-.0608.3597.014.6493.2289.8782s.5653.341 1.0605.341 1.0138-.1214 1.4996-.369c.4859-.2476.8503-.5466 1.0979-.9016s.4205-.8175.5186-1.3827l.1261-.7288z" fill="#488cca"/><path d="m90.6798 14.978h4.6204l-2.0509 11.8933h-4.6205zm.7802-4.5218h4.6204l-.5373 3.1018h-4.6204z" fill="#488cca"/><path d="m107.634 24.1619h-5.835l-1.281 2.7094h-5.246l9.082-16.4151h5.606l3.42 16.4151h-5.382zm-.454-3.5502-.817-5.8999-2.836 5.8999z" fill="#000"/><path d="m116.571 14.978h4.62l-2.051 11.8933h-4.62zm.78-4.5218h4.62l-.537 3.1018h-4.62z" fill="#000"/><path d="m123.705 14.9772h4.321l-.336 1.948c.561-.8455 1.093-1.4248 1.588-1.7424.496-.3177 1.07-.4765 1.724-.4765s1.388.2102 2.126.626l-1.99 3.2466c-.505-.2243-.916-.3364-1.238-.3364-.608 0-1.117.2476-1.533.7381-.598.696-1.06 1.9947-1.387 3.8959l-.687 3.9847h-4.639l2.051-11.8933z" fill="#000"/><path d="m131.605 31.3924 2.831-16.4152h4.321l-.303 1.7565c.724-.7381 1.359-1.2379 1.906-1.4995.733-.3504 1.509-.5279 2.326-.5279 1.612 0 2.752.6073 3.425 1.8265.673 1.2146.855 2.7187.542 4.5125-.341 1.976-1.084 3.4895-2.224 4.5312-1.14 1.0418-2.443 1.5603-3.91 1.5603-.71 0-1.341-.1215-1.883-.3597-.547-.2383-1.009-.5933-1.388-1.0651l-.981 5.6757h-4.662zm6.428-10.4358c-.163.9389-.084 1.6396.243 2.0927.323.4532.79.6821 1.402.6821.537 0 1.023-.2196 1.462-.654.439-.4345.747-1.1772.93-2.2236.168-.9623.098-1.6723-.201-2.1208-.299-.4531-.724-.6773-1.266-.6773-.589 0-1.121.2289-1.593.682s-.795 1.1958-.972 2.2189z" fill="#000"/><path d="m147.769 20.9566c.313-1.8125 1.192-3.3073 2.635-4.4845 1.444-1.1772 3.219-1.7658 5.331-1.7658 2.415 0 4.116.6914 5.111 2.0694.798 1.1118 1.06 2.4805.775 4.1108-.318 1.8312-1.187 3.326-2.621 4.4939-1.429 1.1678-3.233 1.7517-5.4 1.7517-1.939 0-3.42-.4858-4.448-1.4575-1.261-1.2005-1.724-2.7747-1.387-4.7274zm4.63-.0094c-.182 1.0604-.103 1.8452.248 2.3497.345.5092.85.7615 1.509.7615.658 0 1.256-.2523 1.77-.7521.514-.4999.864-1.3033 1.056-2.4058.178-1.0324.093-1.7985-.252-2.303-.346-.5045-.837-.7567-1.472-.7567-.673 0-1.275.2569-1.799.7661-.527.5092-.878 1.2893-1.06 2.3357z" fill="#000"/><path d="m164.364 14.9772h4.321l-.336 1.948c.56-.8455 1.093-1.4248 1.588-1.7424.495-.3177 1.07-.4765 1.724-.4765s1.387.2102 2.126.626l-1.991 3.2466c-.504-.2243-.915-.3364-1.238-.3364-.607 0-1.116.2476-1.532.7381-.598.696-1.06 1.9947-1.388 3.8959l-.686 3.9847h-4.639l2.051-11.8933z" fill="#000"/><path d="m181.705 10.4562-.78 4.5218h2.541l-.574 3.3354h-2.542l-.728 4.2136c-.089.5045-.098.8408-.028 1.0043.107.2523.35.3784.728.3784.341 0 .832-.0981 1.481-.2896l-.201 3.1438c-1.186.2476-2.27.369-3.265.369-1.149 0-1.972-.1448-2.467-.4344s-.822-.7334-.981-1.3267c-.159-.5932-.121-1.5509.108-2.8775l.719-4.1809h-1.701l.575-3.3354h1.701l.378-2.1815 5.032-2.3403z" fill="#000"/><path d="m25.2465 6.39787c1.6255 0 2.9432-1.3176 2.9432-2.94295s-1.3177-2.942957-2.9432-2.942957-2.9433 1.317607-2.9433 2.942957 1.3178 2.94295 2.9433 2.94295z" fill="#fbae31"/><path d="m32.6045 6.39787c1.6255 0 2.9432-1.3176 2.9432-2.94295s-1.3177-2.942957-2.9432-2.942957-2.9432 1.317607-2.9432 2.942957 1.3177 2.94295 2.9432 2.94295z" fill="#fbae31"/><path d="m39.9626 6.39787c1.6256 0 2.9433-1.3176 2.9433-2.94295s-1.3177-2.942957-2.9433-2.942957c-1.6255 0-2.9432 1.317607-2.9432 2.942957s1.3177 2.94295 2.9432 2.94295z" fill="#fbae31"/><path d="m47.3207 6.39787c1.6255 0 2.9432-1.3176 2.9432-2.94295s-1.3177-2.942957-2.9432-2.942957-2.9433 1.317607-2.9433 2.942957 1.3178 2.94295 2.9433 2.94295z" fill="#fbae31"/><path d="m54.6741 6.39787c1.6255 0 2.9433-1.3176 2.9433-2.94295s-1.3178-2.942957-2.9433-2.942957-2.9432 1.317607-2.9432 2.942957 1.3177 2.94295 2.9432 2.94295z" fill="#fbae31"/><path d="m62.0322 6.39787c1.6255 0 2.9433-1.3176 2.9433-2.94295s-1.3178-2.942957-2.9433-2.942957-2.9432 1.317607-2.9432 2.942957 1.3177 2.94295 2.9432 2.94295z" fill="#fbae31"/><path d="m69.3903 6.39787c1.6255 0 2.9433-1.3176 2.9433-2.94295s-1.3178-2.942957-2.9433-2.942957-2.9432 1.317607-2.9432 2.942957 1.3177 2.94295 2.9432 2.94295z" fill="#fbae31"/><path d="m76.7437 6.39787c1.6255 0 2.9433-1.3176 2.9433-2.94295s-1.3178-2.942957-2.9433-2.942957-2.9432 1.317607-2.9432 2.942957 1.3177 2.94295 2.9432 2.94295z" fill="#fbae31"/><path d="m84.1019 6.39787c1.6255 0 2.9432-1.3176 2.9432-2.94295s-1.3177-2.942957-2.9432-2.942957-2.9433 1.317607-2.9433 2.942957 1.3178 2.94295 2.9433 2.94295z" fill="#fbae31"/><path d="m91.4599 6.39787c1.6255 0 2.9432-1.3176 2.9432-2.94295s-1.3177-2.942957-2.9432-2.942957-2.9432 1.317607-2.9432 2.942957 1.3177 2.94295 2.9432 2.94295z" fill="#fbae31"/><path d="m98.8181 6.39787c1.6259 0 2.9429-1.3176 2.9429-2.94295s-1.317-2.942957-2.9429-2.942957c-1.6255 0-2.9433 1.317607-2.9433 2.942957s1.3178 2.94295 2.9433 2.94295z" fill="#fbae31"/><path d="m106.171 6.39787c1.626 0 2.944-1.3176 2.944-2.94295s-1.318-2.942957-2.944-2.942957c-1.625 0-2.943 1.317607-2.943 2.942957s1.318 2.94295 2.943 2.94295z" fill="#fbae31"/><path d="m97.6827 38.677c1.6255 0 2.9433-1.3176 2.9433-2.9429 0-1.6254-1.3178-2.943-2.9433-2.943s-2.9432 1.3176-2.9432 2.943c0 1.6253 1.3177 2.9429 2.9432 2.9429z" fill="#d81e49"/><path d="m105.036 38.677c1.626 0 2.943-1.3176 2.943-2.9429 0-1.6254-1.317-2.943-2.943-2.943-1.625 0-2.943 1.3176-2.943 2.943 0 1.6253 1.318 2.9429 2.943 2.9429z" fill="#d81e49"/><path d="m112.394 38.677c1.626 0 2.944-1.3176 2.944-2.9429 0-1.6254-1.318-2.943-2.944-2.943-1.625 0-2.943 1.3176-2.943 2.943 0 1.6253 1.318 2.9429 2.943 2.9429z" fill="#d81e49"/><path d="m119.752 38.677c1.626 0 2.944-1.3176 2.944-2.9429 0-1.6254-1.318-2.943-2.944-2.943-1.625 0-2.943 1.3176-2.943 2.943 0 1.6253 1.318 2.9429 2.943 2.9429z" fill="#d81e49"/><path d="m127.106 38.677c1.625 0 2.943-1.3176 2.943-2.9429 0-1.6254-1.318-2.943-2.943-2.943-1.626 0-2.943 1.3176-2.943 2.943 0 1.6253 1.317 2.9429 2.943 2.9429z" fill="#d81e49"/><path d="m134.464 38.677c1.625 0 2.943-1.3176 2.943-2.9429 0-1.6254-1.318-2.943-2.943-2.943-1.626 0-2.943 1.3176-2.943 2.943 0 1.6253 1.317 2.9429 2.943 2.9429z" fill="#d81e49"/><path d="m141.822 38.677c1.625 0 2.943-1.3176 2.943-2.9429 0-1.6254-1.318-2.943-2.943-2.943-1.626 0-2.943 1.3176-2.943 2.943 0 1.6253 1.317 2.9429 2.943 2.9429z" fill="#d81e49"/><path d="m149.18 38.677c1.626 0 2.943-1.3176 2.943-2.9429 0-1.6254-1.317-2.943-2.943-2.943-1.625 0-2.943 1.3176-2.943 2.943 0 1.6253 1.318 2.9429 2.943 2.9429z" fill="#d81e49"/><path d="m156.534 38.677c1.625 0 2.943-1.3176 2.943-2.9429 0-1.6254-1.318-2.943-2.943-2.943-1.626 0-2.944 1.3176-2.944 2.943 0 1.6253 1.318 2.9429 2.944 2.9429z" fill="#d81e49"/><path d="m163.892 38.677c1.625 0 2.943-1.3176 2.943-2.9429 0-1.6254-1.318-2.943-2.943-2.943-1.626 0-2.944 1.3176-2.944 2.943 0 1.6253 1.318 2.9429 2.944 2.9429z" fill="#d81e49"/><path d="m171.25 38.677c1.625 0 2.943-1.3176 2.943-2.9429 0-1.6254-1.318-2.943-2.943-2.943-1.626 0-2.944 1.3176-2.944 2.943 0 1.6253 1.318 2.9429 2.944 2.9429z" fill="#d81e49"/><path d="m178.608 38.677c1.625 0 2.943-1.3176 2.943-2.9429 0-1.6254-1.318-2.943-2.943-2.943-1.626 0-2.943 1.3176-2.943 2.943 0 1.6253 1.317 2.9429 2.943 2.9429z" fill="#d81e49"/><g fill="#000"><path d="m9.55384 68.7776h-2.09297l-.83158-2.2376h-3.80285l-.78486 2.2376h-2.04158l3.70941-9.8566h2.03224zm-3.54123-3.9006-1.31277-3.6577-1.28475 3.6577z"/><path d="m14.0155 68.7776v-9.8566h2.8778l1.7286 6.7221 1.7099-6.7221h2.8825v9.8566h-1.7846v-7.7591l-1.8874 7.7591h-1.8501l-1.8827-7.7591v7.7591h-1.7847z"/><path d="m29.2316 66.5025 1.8173.3176c-.2336.6914-.6027 1.2146-1.1072 1.5743-.5046.3597-1.1353.5418-1.8921.5418-1.2007 0-2.0883-.4064-2.6629-1.2145-.4532-.6493-.6821-1.4715-.6821-2.4618 0-1.1819.299-2.1115.897-2.7795s1.3548-1.0043 2.2658-1.0043c1.0278 0 1.836.3503 2.4293 1.051.5934.7007.8783 1.7751.8503 3.2233h-4.5737c.014.5605.1589.995.4392 1.308.2803.3129.6307.4671 1.0511.4671.285 0 .5279-.0794.7195-.2429.1962-.1635.341-.4204.4438-.7801zm.1027-1.9106c-.014-.5466-.1494-.9623-.4111-1.2473-.2616-.2849-.5746-.4251-.9483-.4251-.3971 0-.7288.1495-.9858.4485-.2616.2989-.3878.71-.3831 1.2239z"/><path d="m32.6327 61.6386h1.6818v.9763c.6027-.7568 1.3175-1.1352 2.149-1.1352.4439 0 .827.0935 1.1493.2803.3224.1869.5887.4718.7989.8549.3037-.3831.6307-.6634.9811-.8549.3504-.1868.7241-.2803 1.1212-.2803.5046 0 .9344.1075 1.2847.3177.3504.2102.6121.5232.7849.9389.1262.3037.1869.7988.1869 1.4809v4.5639h-1.8267v-4.0781c0-.7101-.0607-1.1632-.1869-1.3734-.1681-.2709-.4298-.4017-.7802-.4017-.2569 0-.4952.0794-.7194.2429-.2243.1635-.3878.397-.4859.71s-.1495.8035-.1495 1.4762v3.4287h-1.8267v-3.9146c0-.696-.0327-1.1444-.0981-1.3453s-.1635-.3504-.3036-.4485c-.1402-.0981-.3224-.1494-.556-.1494-.2803 0-.5326.0794-.7615.2335-.2289.1542-.3877.3831-.4858.6774-.0982.2943-.1449.7848-.1449 1.4714v3.4709h-1.8266v-7.1379z"/><path d="m44.6486 68.7776v-9.8566h1.8266v3.5503c.5607-.6634 1.2287-.9951 1.9996-.9951.8409 0 1.5323.313 2.0836.9437.5513.6306.8269 1.5322.8269 2.714 0 1.1819-.2803 2.1582-.8409 2.8169-.5606.6586-1.2427.9903-2.0416.9903-.3924 0-.7802-.1028-1.168-.3037-.383-.2055-.7147-.5045-.9904-.9062v1.0511h-1.6958zm1.8126-3.7231c0 .7381.1121 1.2846.3364 1.6397.3177.4998.7381.752 1.2614.752.4018 0 .7475-.1775 1.0278-.5325s.4251-.9156.4251-1.6817c0-.8175-.1448-1.4014-.4298-1.7657-.285-.3597-.654-.5419-1.0979-.5419-.4438 0-.7988.1775-1.0932.5278-.2896.3504-.4345.8876-.4345 1.6023z"/><path d="m56.9774 66.5025 1.8173.3176c-.2336.6914-.6027 1.2146-1.1072 1.5743-.5046.3597-1.1353.5418-1.8921.5418-1.2007 0-2.0883-.4064-2.6629-1.2145-.4532-.6493-.6821-1.4715-.6821-2.4618 0-1.1819.299-2.1115.897-2.7795s1.3548-1.0043 2.2658-1.0043c1.0278 0 1.836.3503 2.4293 1.051s.8783 1.7751.8503 3.2233h-4.5737c.014.5605.1588.995.4392 1.308.2803.3129.6306.4671 1.0511.4671.285 0 .5279-.0794.7195-.2429.1962-.1635.341-.4204.4438-.7801zm.1027-1.9106c-.014-.5466-.1495-.9623-.4111-1.2473-.2616-.2849-.5746-.4251-.9484-.4251-.3971 0-.7288.1495-.9857.4485-.2616.2989-.3878.71-.3831 1.2239z"/><path d="m62.2565 68.7774h-1.8267v-7.1378h1.6959v1.0137c.2896-.4812.5512-.7942.7802-.9483.2289-.1542.4952-.2289.7895-.2289.4158 0 .8176.1168 1.2007.355l-.5653 1.649c-.3084-.2055-.5934-.3083-.855-.3083s-.4718.0747-.6494.2195c-.1775.1448-.3176.4111-.4204.7895-.1028.383-.1542 1.1772-.1542 2.3917v2.2049z"/><path d="m69.2268 65.1057c0-.6259.1495-1.2332.4485-1.8218s.7241-1.037 1.2707-1.3454c.5466-.3083 1.1586-.4624 1.8361-.4624 1.0418 0 1.8967.3503 2.5648 1.051.668.7007.9997 1.5883.9997 2.658 0 1.0698-.3363 1.976-1.0091 2.6861-.6727.71-1.5183 1.065-2.5414 1.065-.6307 0-1.2334-.1494-1.808-.4437-.5747-.2943-1.0091-.7288-1.3081-1.2987s-.4485-1.2659-.4485-2.0881zm1.8687.1028c0 .71.1635 1.2519.4859 1.6256.3224.3784.7241.5653 1.2007.5653.4765 0 .8736-.1869 1.1959-.5653.3224-.3784.4859-.9249.4859-1.6396s-.1635-1.2379-.4859-1.6116c-.3223-.3784-.7241-.5653-1.1959-.5653-.4719 0-.8783.1869-1.2007.5653-.327.3783-.4859.9202-.4859 1.6256z"/><path d="m77.1035 61.6398h1.0137v-.5372c0-.6026.0608-1.051.1869-1.3453.1262-.2943.3504-.5372.6821-.7241.3317-.1868.7522-.2803 1.2567-.2803.5046 0 1.0278.0794 1.5277.2429l-.2476 1.3174c-.2897-.0701-.57-.1075-.8363-.1075s-.4531.0654-.5699.1915c-.1168.1262-.1729.3738-.1729.7381v.5045h1.3642v1.4855h-1.3642v5.6524h-1.8267v-5.6524h-1.0137z"/><path d="m167.877 65.1528v-1.6583h3.854v3.9239c-.374.4018-.916.7568-1.626 1.0651s-1.429.4625-2.158.4625c-.925 0-1.733-.2149-2.42-.6494-.687-.4344-1.205-1.051-1.551-1.8545s-.519-1.6817-.519-2.6253c0-1.0277.192-1.9386.58-2.7374.387-.7988.953-1.4108 1.695-1.8359.566-.3269 1.276-.4904 2.121-.4904 1.098 0 1.958.2569 2.575.7707.616.5139 1.013 1.2239 1.191 2.1255l-1.775.369c-.127-.4858-.36-.8642-.706-1.1445-.346-.2802-.775-.4204-1.289-.4204-.78 0-1.402.2756-1.864.8269-.463.5512-.692 1.3687-.692 2.4524 0 1.1679.234 2.0461.701 2.63s1.079.8782 1.836.8782c.374 0 .752-.0794 1.126-.2429s.701-.3597.972-.5933v-1.2519h-2.047z"/><path d="m175.118 68.7777h-1.696v-7.1379h1.579v1.0137c.271-.4811.514-.7941.729-.9483.215-.1541.458-.2289.734-.2289.387 0 .756.1168 1.116.355l-.523 1.649c-.285-.2055-.551-.3083-.799-.3083s-.439.0748-.603.2196c-.163.1448-.294.4111-.387.7894-.094.3831-.141 1.1772-.141 2.3918v2.2049z"/><path d="m178.038 65.106c0-.626.14-1.2333.416-1.8219.275-.5886.673-1.037 1.182-1.3453s1.079-.4625 1.705-.4625c.972 0 1.766.3504 2.387 1.0511.622.7007.93 1.5882.93 2.658 0 1.0697-.313 1.976-.939 2.686-.626.7101-1.416 1.0651-2.364 1.0651-.589 0-1.149-.1495-1.682-.4438-.532-.2943-.939-.7287-1.219-1.2986-.276-.5699-.416-1.266-.416-2.0881zm1.738.1027c0 .7101.149 1.252.453 1.6257.304.3783.673.5652 1.117.5652.443 0 .812-.1869 1.111-.5652.299-.3784.449-.925.449-1.6397s-.15-1.2379-.449-1.6116c-.299-.3784-.672-.5652-1.111-.5652-.44 0-.818.1868-1.117.5652-.304.3784-.453.9203-.453 1.6256z"/><path d="m190.329 68.7776v-1.0697c-.233.383-.541.682-.92.9016-.378.2195-.78.3316-1.205.3316s-.818-.1074-1.159-.3176-.588-.5045-.743-.8876c-.154-.383-.229-.9062-.229-1.5789v-4.5172h1.696v3.2793c0 1.0043.033 1.621.094 1.8452s.177.4064.341.5372c.163.1308.374.1962.626.1962.29 0 .551-.0888.78-.2663s.388-.3971.472-.6586c.084-.2616.126-.9063.126-1.9246v-3.0131h1.696v7.1379h-1.579z"/><path d="m193.74 61.6387h1.584v1.051c.205-.3597.481-.6493.831-.8735.351-.2242.738-.3363 1.168-.3363.743 0 1.378.327 1.897.9763.518.6493.78 1.5555.78 2.714s-.262 2.1208-.785 2.7795c-.523.6633-1.158.9903-1.901.9903-.355 0-.678-.0794-.963-.2336-.289-.1588-.588-.4251-.911-.8081v3.5969h-1.695v-9.8565zm1.677 3.4474c0 .8035.145 1.3968.43 1.7798.285.3831.635.5746 1.046.5746s.724-.1775.986-.5279c.262-.3503.393-.9296.393-1.733 0-.7474-.136-1.3033-.407-1.6677s-.603-.5466-1.004-.5466c-.402 0-.757.1776-1.033.5326-.275.355-.411.8829-.411 1.5836z"/></g><path d="m99.7337 69.0528s6.5313 9.651 9.4463 7.5722c2.812-2.3123-9.2454-18.7368-13.6509-23.8706 0 0 11.3759 16.5132 9.0349 18.961-1.098 1.7004-4.8303-2.6626-4.8303-2.6626z" fill="#27468d"/><path d="m98.519 62.8264s-11.6375.6307-11.3572 4.1996c.5373 3.5969 20.8272 1.719 27.4932.5839 0 0-20.0136 1.2519-20.9059-2.0134-.8923-1.8125 4.7699-2.7701 4.7699-2.7701z" fill="#27468d"/><path d="m104.625 65.1239s4.574-10.7161 1.247-12.0428c-3.466-1.1071-10.7355 17.924-12.665 24.4079 0 0 7.713-18.5079 11.04-17.868 2.022 0 .378 5.5029.378 5.5029z" fill="#d81a34"/><path d="m116.772 57.7992h4.485l1.728 6.5819 1.715-6.5819h4.48v10.8142h-2.794v-8.245l-2.153 8.245h-2.528l-2.149-8.245v8.245h-2.794v-10.8142z" fill="#27468d"/><path d="m131.474 57.7992h4.485l1.728 6.5819 1.715-6.5819h4.48v10.8142h-2.793v-8.245l-2.154 8.245h-2.528l-2.149-8.245v8.245h-2.793v-10.8142z" fill="#27468d"/><path d="m153.562 64.1859 2.99.8829c-.201.8222-.518 1.5088-.948 2.0601-.43.5512-.967.9669-1.607 1.2472s-1.453.4204-2.444.4204c-1.2 0-2.177-.1728-2.938-.5138-.762-.341-1.416-.9436-1.967-1.8032-.551-.8595-.827-1.9619-.827-3.3026 0-1.7891.486-3.1625 1.458-4.1248s2.345-1.4435 4.12-1.4435c1.388 0 2.481.2757 3.28.8269.794.5512 1.387 1.3967 1.771 2.5365l-3.009.6587c-.108-.3317-.215-.5699-.332-.7241-.191-.2569-.425-.4531-.701-.5886-.275-.1354-.584-.2055-.925-.2055-.77 0-1.364.3036-1.775.9156-.313.4531-.467 1.1631-.467 2.1301 0 1.2006.187 2.018.556 2.4665.369.4438.892.668 1.565.668s1.145-.1775 1.481-.5372c.332-.3597.575-.8782.724-1.5649z" fill="#27468d"/></g></svg>