<?xml version="1.0" encoding="UTF-8"?>
<svg id="Layer_2" data-name="Layer 2" xmlns="http://www.w3.org/2000/svg" viewBox="0 0 208.06 47.14">
  <defs>
    <style>
      .cls-1 {
        fill: none;
      }

      .cls-2 {
        fill: #414042;
      }

      .cls-3 {
        fill: #316cf4;
      }
    </style>
  </defs>
  <g id="Layer_1-2" data-name="Layer 1">
    <g>
      <g>
        <g>
          <path class="cls-2" d="M64.5,27.35c-1.7,1.48-3.91,2.22-6.64,2.22s-4.94-.74-6.64-2.22c-1.7-1.48-2.55-3.43-2.55-5.83V6.5h6.44v14.31c0,1.68.91,2.51,2.74,2.51s2.74-.84,2.74-2.51V6.5h6.44v15.02c0,2.41-.85,4.35-2.55,5.83Z"/>
          <path class="cls-2" d="M76.39,22.8h7.41v6.25h-13.86V6.5h6.44v16.31Z"/>
          <path class="cls-2" d="M99.43,29.06l-.77-2.9h-6.51l-.77,2.9h-6.93l7.19-22.56h7.54l7.19,22.56h-6.93ZM93.53,21h3.74l-1.87-6.93-1.87,6.93Z"/>
          <path class="cls-2" d="M121.83,6.5v6.25h-5.32v16.31h-6.44V12.75h-5.32v-6.25h17.08Z"/>
          <path class="cls-2" d="M144.7,17.42c1.93,1.1,2.9,2.76,2.9,4.99,0,2.06-.67,3.68-2.01,4.87s-3.29,1.77-5.85,1.77h-9.54V6.5h8.96c2.53,0,4.47.55,5.8,1.64,1.33,1.1,2,2.66,2,4.7s-.75,3.48-2.26,4.58ZM138.77,12.04h-2.13v3.03l2.48-.03c.92-.13,1.39-.62,1.39-1.48,0-.49-.17-.87-.52-1.13-.34-.26-.75-.39-1.22-.39ZM139.35,23.51c.52,0,.95-.15,1.29-.45.34-.3.52-.69.52-1.16,0-.9-.48-1.43-1.45-1.58l-3.06-.03v3.22h2.71Z"/>
          <path class="cls-2" d="M165.04,27.35c-1.7,1.48-3.91,2.22-6.64,2.22s-4.94-.74-6.64-2.22c-1.7-1.48-2.55-3.43-2.55-5.83V6.5h6.44v14.31c0,1.68.91,2.51,2.74,2.51s2.74-.84,2.74-2.51V6.5h6.44v15.02c0,2.41-.85,4.35-2.55,5.83Z"/>
          <path class="cls-2" d="M189.69,29.06h-7.15l-5.61-9.67v9.67h-6.44V6.5h6.44v9.01l5.28-9.01h7.15l-6.7,10.96,7.02,11.6Z"/>
          <path class="cls-2" d="M205.51,27.35c-1.7,1.48-3.91,2.22-6.64,2.22s-4.94-.74-6.64-2.22c-1.7-1.48-2.55-3.43-2.55-5.83V6.5h6.44v14.31c0,1.68.91,2.51,2.74,2.51s2.74-.84,2.74-2.51V6.5h6.44v15.02c0,2.41-.85,4.35-2.55,5.83Z"/>
        </g>
        <g>
          <path class="cls-2" d="M49.71,40.43c-.32-.14-.57-.34-.76-.6-.18-.26-.27-.56-.27-.9h1.05c.02.26.12.47.31.64.18.17.43.25.76.25s.6-.08.79-.24.28-.37.28-.63c0-.2-.06-.36-.18-.49-.12-.13-.26-.22-.44-.29-.17-.07-.42-.14-.73-.22-.39-.1-.71-.21-.95-.31-.24-.11-.45-.27-.62-.49s-.26-.52-.26-.89c0-.34.09-.64.26-.9.17-.26.41-.46.72-.59.31-.14.67-.21,1.07-.21.58,0,1.05.14,1.42.43.37.29.57.69.61,1.19h-1.08c-.02-.22-.12-.4-.31-.56-.19-.15-.44-.23-.75-.23-.28,0-.51.07-.69.22s-.27.35-.27.62c0,.18.06.33.17.45s.25.21.43.28c.17.07.41.14.7.22.4.11.72.22.97.33.25.11.46.28.64.5.17.23.26.53.26.91,0,.3-.08.59-.24.86-.16.27-.4.49-.71.65s-.68.24-1.1.24c-.4,0-.76-.07-1.08-.21Z"/>
          <path class="cls-2" d="M62.19,34.61v5.97h-.98v-4.09l-1.82,4.09h-.68l-1.83-4.09v4.09h-.98v-5.97h1.06l2.1,4.68,2.09-4.68h1.05Z"/>
          <path class="cls-2" d="M68.97,39.36h-2.5l-.43,1.22h-1.02l2.14-5.98h1.13l2.14,5.98h-1.03l-.43-1.22ZM68.7,38.56l-.97-2.78-.98,2.78h1.95Z"/>
          <path class="cls-2" d="M76.36,40.58l-1.37-2.39h-.75v2.39h-.98v-5.97h2.06c.46,0,.85.08,1.16.24s.56.38.71.64c.16.27.24.57.24.9,0,.39-.11.74-.34,1.06-.23.32-.57.53-1.04.65l1.48,2.47h-1.17ZM74.23,37.41h1.08c.37,0,.64-.09.83-.28.19-.18.28-.43.28-.74s-.09-.55-.28-.73-.46-.26-.83-.26h-1.08v2Z"/>
          <path class="cls-2" d="M84.43,34.61v.8h-1.59v5.17h-.98v-5.17h-1.6v-.8h4.17Z"/>
          <path class="cls-2" d="M92.42,39.79h2.02v.79h-3v-5.97h.98v5.18Z"/>
          <path class="cls-2" d="M98.12,34.61v5.97h-.98v-5.97h.98Z"/>
          <path class="cls-2" d="M105.31,38.02c.22.28.34.6.34.95,0,.3-.08.58-.24.82s-.39.44-.68.58-.64.21-1.04.21h-2.39v-5.97h2.28c.41,0,.76.07,1.05.21.29.14.51.32.66.55.15.23.22.49.22.78,0,.34-.09.63-.28.86-.18.23-.43.4-.74.51.32.06.59.23.82.51ZM102.28,37.12h1.21c.32,0,.57-.07.75-.22.18-.15.27-.36.27-.63s-.09-.48-.27-.63c-.18-.15-.43-.23-.75-.23h-1.21v1.71ZM104.39,39.54c.19-.16.28-.38.28-.67s-.1-.52-.3-.7c-.2-.17-.47-.26-.8-.26h-1.29v1.87h1.32c.33,0,.59-.08.78-.24Z"/>
          <path class="cls-2" d="M111.71,40.58l-1.37-2.39h-.75v2.39h-.98v-5.97h2.06c.46,0,.85.08,1.16.24s.56.38.71.64c.16.27.24.57.24.9,0,.39-.11.74-.34,1.06-.23.32-.57.53-1.04.65l1.48,2.47h-1.17ZM109.58,37.41h1.08c.37,0,.64-.09.83-.28.19-.18.28-.43.28-.74s-.09-.55-.28-.73-.46-.26-.83-.26h-1.08v2Z"/>
          <path class="cls-2" d="M119.53,39.36h-2.5l-.43,1.22h-1.02l2.14-5.98h1.13l2.14,5.98h-1.03l-.43-1.22ZM119.25,38.56l-.97-2.78-.98,2.78h1.95Z"/>
          <path class="cls-2" d="M126.91,40.58l-1.38-2.39h-.75v2.39h-.98v-5.97h2.06c.46,0,.85.08,1.16.24s.56.38.71.64.24.57.24.9c0,.39-.11.74-.34,1.06-.23.32-.57.53-1.04.65l1.48,2.47h-1.17ZM124.79,37.41h1.08c.37,0,.64-.09.83-.28.19-.18.28-.43.28-.74s-.09-.55-.28-.73c-.18-.17-.46-.26-.83-.26h-1.08v2Z"/>
          <path class="cls-2" d="M135.55,34.61l-1.98,3.81v2.17h-.98v-2.17l-1.99-3.81h1.09l1.38,2.93,1.38-2.93h1.08Z"/>
          <path class="cls-2" d="M145.94,39.36h-2.5l-.43,1.22h-1.02l2.14-5.98h1.13l2.14,5.98h-1.03l-.43-1.22ZM145.67,38.56l-.97-2.78-.98,2.78h1.95Z"/>
          <path class="cls-2" d="M150.3,36.01c.27-.46.64-.83,1.11-1.09.47-.26.98-.39,1.53-.39.64,0,1.2.16,1.7.47.5.31.85.75,1.08,1.33h-1.18c-.15-.31-.37-.55-.64-.7-.27-.15-.59-.23-.95-.23-.4,0-.75.09-1.06.27-.31.18-.55.43-.73.76-.17.33-.26.72-.26,1.16s.09.83.26,1.16c.17.33.42.59.73.77.31.18.66.27,1.06.27.36,0,.68-.08.95-.23.28-.15.49-.39.64-.7h1.18c-.22.57-.58,1.01-1.08,1.32-.5.31-1.06.46-1.7.46-.56,0-1.07-.13-1.54-.39s-.83-.62-1.1-1.09c-.27-.46-.41-.99-.41-1.57s.14-1.11.41-1.57Z"/>
          <path class="cls-2" d="M158.84,36.01c.27-.46.64-.83,1.11-1.09.47-.26.98-.39,1.53-.39.64,0,1.2.16,1.7.47.5.31.85.75,1.08,1.33h-1.18c-.15-.31-.37-.55-.64-.7-.27-.15-.59-.23-.95-.23-.4,0-.75.09-1.06.27-.31.18-.55.43-.73.76-.17.33-.26.72-.26,1.16s.09.83.26,1.16c.17.33.42.59.73.77.31.18.66.27,1.06.27.36,0,.68-.08.95-.23.28-.15.49-.39.64-.7h1.18c-.22.57-.58,1.01-1.08,1.32-.5.31-1.06.46-1.7.46-.56,0-1.07-.13-1.54-.39s-.83-.62-1.1-1.09c-.27-.46-.41-.99-.41-1.57s.14-1.11.41-1.57Z"/>
          <path class="cls-2" d="M168.27,35.4v1.75h2.06v.8h-2.06v1.83h2.32v.8h-3.3v-5.98h3.3v.8h-2.32Z"/>
          <path class="cls-2" d="M174.57,40.43c-.32-.14-.57-.34-.76-.6-.18-.26-.27-.56-.27-.9h1.05c.02.26.12.47.31.64s.43.25.76.25.6-.08.79-.24c.19-.16.28-.37.28-.63,0-.2-.06-.36-.18-.49s-.26-.22-.44-.29c-.18-.07-.42-.14-.73-.22-.39-.1-.71-.21-.95-.31-.24-.11-.45-.27-.62-.49-.17-.22-.26-.52-.26-.89,0-.34.09-.64.26-.9.17-.26.41-.46.72-.59s.67-.21,1.07-.21c.58,0,1.05.14,1.42.43.37.29.57.69.61,1.19h-1.08c-.02-.22-.12-.4-.31-.56-.19-.15-.44-.23-.75-.23-.28,0-.51.07-.69.22-.18.14-.27.35-.27.62,0,.18.06.33.17.45s.25.21.43.28c.17.07.41.14.7.22.39.11.72.22.97.33.25.11.46.28.64.5.17.23.26.53.26.91,0,.3-.08.59-.24.86-.16.27-.4.49-.71.65-.31.16-.68.24-1.1.24-.4,0-.76-.07-1.08-.21Z"/>
          <path class="cls-2" d="M181.65,40.43c-.32-.14-.57-.34-.76-.6-.18-.26-.27-.56-.27-.9h1.05c.02.26.12.47.31.64s.43.25.76.25.6-.08.79-.24c.19-.16.28-.37.28-.63,0-.2-.06-.36-.18-.49s-.26-.22-.44-.29c-.18-.07-.42-.14-.73-.22-.39-.1-.71-.21-.95-.31-.24-.11-.45-.27-.62-.49-.17-.22-.26-.52-.26-.89,0-.34.09-.64.26-.9.17-.26.41-.46.72-.59s.67-.21,1.07-.21c.58,0,1.05.14,1.42.43.37.29.57.69.61,1.19h-1.08c-.02-.22-.12-.4-.31-.56-.19-.15-.44-.23-.75-.23-.28,0-.51.07-.69.22-.18.14-.27.35-.27.62,0,.18.06.33.17.45s.25.21.43.28c.17.07.41.14.7.22.39.11.72.22.97.33.25.11.46.28.64.5.17.23.26.53.26.91,0,.3-.08.59-.24.86-.16.27-.4.49-.71.65-.31.16-.68.24-1.1.24-.4,0-.76-.07-1.08-.21Z"/>
        </g>
      </g>
      <g>
        <path class="cls-3" d="M18.98,27.51c0-.13-.17-.17-.23-.05-.37.75-.83,1.56-1.71,1.42-.87-.1-1.05-1.01-1.15-1.84-.02-.13-.19-.15-.24-.02-.26.73-.25,1.62.32,2.23.79.78,2.24.56,2.69-.45.23-.41.32-.85.31-1.29Z"/>
        <path class="cls-1" d="M23.38,9c-.7-.02-1.42,0-2.13.07-1.71.17-3.42.58-5.01,1.16l-10.27,3.78c-2.14.79-3.7,2.45-4.43,4.44.13-2.54,1.11-4.96,2.75-6.29l7.14-5.8c2.62-2.14,5.39-3.01,7.59-2.41.46.12.89.31,1.29.56,1.23.76,2.2,2.1,2.89,3.99.06.17.12.33.17.5Z"/>
        <path class="cls-3" d="M18.98,27.55c0-.14-.19-.18-.25-.06-.37.74-.83,1.52-1.69,1.39-.86-.1-1.05-.98-1.15-1.8-.02-.14-.21-.16-.25-.03-.24.72-.23,1.59.33,2.19.79.78,2.24.56,2.69-.45.22-.4.31-.83.31-1.25Z"/>
        <path class="cls-3" d="M37.57,28.61c-.72-1.95-1.92-3.45-3.42-4.43-.04.07-.09.15-.14.22-1.26,1.89-2.76,3.14-4.03,3.99.19-.73-.07-1.33-.07-1.33-.05.55-.14.93-.23,1.19h0c-.12.31-.22.45-.27.5-.09.06-.17.11-.27.16-.16.1-.31.19-.46.27-.16.1-.31.18-.45.26-1.23.68-2.58,1.25-3.95,1.71-4.8,1.58-9.92,1.7-11.2-.5-.77-1.31-.14-3.39.92-4.6,1.62-1.86,3.8-1.15,9.22-2.15h0c.18.09.61.37,1.16,1.23,0,0-.07-.74-.69-1.32.07-.02.13-.02.2-.04.87-.17,1.65-.33,2.35-.49.82-.19,1.54-.38,2.16-.61.13-.05.27-.1.38-.15.13-.05.27-.11.38-.17.38-.17.72-.37,1.04-.61h0c.12-.09.22-.17.32-.27.1-.08.19-.17.27-.27.22-.04.76-.07,1.67.28,0,0-.44-.61-1.29-.7,1.67-2.15,1.78-4.82,1.02-6.62-1.58-3.31-4.59-4.81-7.94-5.12-.08-.28-.18-.56-.28-.85-.93-2.52-2.34-4.16-4.19-4.86-2.67-5.24-7.44-3.61-10.92-.05l-6.38,6.55C.08,12.32-.72,17.45.71,21.32l.84,2.27,6.03,16.39.84,2.28c1.43,3.86,5.71,5.84,9.58,4.42l10.27-3.78c6.02-2.21,11.82-7.48,9.31-14.29ZM5.97,14.02c-2.14.79-3.7,2.45-4.43,4.44.13-2.54,1.11-4.96,2.75-6.29l7.14-5.8c2.62-2.14,5.39-3.01,7.59-2.41.46.12.89.31,1.29.56,1.23.76,2.2,2.1,2.89,3.99.06.17.12.33.17.5-.7-.02-1.42,0-2.13.07-1.71.17-3.42.58-5.01,1.16l-10.27,3.78Z"/>
        <path class="cls-3" d="M18.67,28.79c-.46,1-1.91,1.23-2.69.45-.57-.6-.58-1.47-.33-2.2.04-.13.23-.11.25.03.1.82.28,1.7,1.15,1.81.86.13,1.32-.65,1.69-1.4.06-.12.24-.08.24.06,0,.42-.09.86-.31,1.26Z"/>
      </g>
    </g>
  </g>
</svg>